<svg width="43" height="44" viewBox="0 0 43 44" xmlns="http://www.w3.org/2000/svg"><g fill-rule="nonzero" fill="#F03C6E"><path d="M36.374 19.923c-.052-.307-.1-.664-.152-.968-.2-1.02-.555-1.988-1.008-2.958-.151-.357-.352-.663-.504-.968a13.324 13.324 0 0 0-1.36-1.938 16.55 16.55 0 0 0-.907-.968c-2.419-2.5-5.794-3.978-9.473-3.978-3.679 0-7.054 1.478-9.473 3.926-.303.307-.605.663-.908.968a16.717 16.717 0 0 0-1.36 1.938c-.2.307-.352.663-.504.968-.452.918-.755 1.938-1.007 2.958-.051.307-.152.663-.152.968-.1.663-.151 1.275-.151 1.938 0 .307 0 .663.05.968.353 5.099 3.427 9.381 7.81 11.473.304.153.605.255.908.408 1.512.562 3.124.918 4.838.918.655 0 1.31-.051 1.915-.153.352-.052.655-.102.957-.203 3.375-.765 6.298-2.805 8.213-5.557.2-.307.404-.663.604-.968.353-.612.656-1.275.908-1.938.1-.307.252-.663.352-.968.303-.918.453-1.938.555-2.958 0-.307.051-.663.051-.968-.053-.665-.102-1.329-.203-1.94zm-.807 1.938h-4.134c-.2.356-.555.663-.956.816-.201.102-.453.154-.705.154a1.925 1.925 0 0 1-1.915-1.938c0-1.072.856-1.938 1.915-1.938.252 0 .504.051.705.153.403.153.756.458.956.817h3.982c.1.61.152 1.273.152 1.936zM22.97 9.113c3.074 0 5.846 1.121 8.062 2.958h-9.774a2.884 2.884 0 0 0-2.167-.968c-.856 0-1.612.356-2.167.968h-2.016c2.216-1.837 4.988-2.958 8.062-2.958zM13.9 13.04h3.527c.201-.357.555-.663.957-.817.2-.101.453-.153.705-.153.251 0 .503.052.704.153.404.154.756.458.957.817h11.29a17.904 17.904 0 0 1 1.51 1.938H20.804c-.201.357-.555.663-.957.817-.2.101-.453.153-.705.153-.251 0-.503-.052-.704-.153a1.887 1.887 0 0 1-.957-.817h-5.038c.35-.663.854-1.327 1.458-1.938zm-3.375 6.884h11.488a.96.96 0 0 1 .957.968c0 .512-.453.97-.957.97h-11.64c0-.664.051-1.327.152-1.938zM22.97 34.609c-1.612 0-3.175-.307-4.586-.867a3.381 3.381 0 0 1 3.123-2.091c1.664 0 3.024 1.223 3.327 2.804-.605.102-1.209.154-1.864.154zm10.632-5.864h-7.76a.96.96 0 0 1-.957-.968.96.96 0 0 1 .957-.968h8.717c-.252.66-.604 1.272-.956 1.936zm1.36-2.958h-9.12a1.925 1.925 0 0 0-1.916 1.938c0 1.071.857 1.938 1.915 1.938h7.055c-1.764 2.243-4.232 3.926-7.106 4.589-.403-2.04-2.167-3.621-4.283-3.621-1.815 0-3.326 1.121-3.98 2.651-3.98-1.835-6.75-5.812-7.103-10.453h11.589a1.925 1.925 0 0 0 1.915-1.938 1.925 1.925 0 0 0-1.915-1.938l-11.288.002c.252-1.02.605-2.04 1.108-2.958h5.09c.556.611 1.311.968 2.167.968.857 0 1.612-.357 2.167-.968h12.849c.453.918.856 1.886 1.108 2.958h-3.326a2.884 2.884 0 0 0-2.167-.968c-1.612 0-2.923 1.326-2.923 2.958 0 1.63 1.31 2.957 2.923 2.957.856 0 1.612-.356 2.167-.968h3.627c-.049.915-.252 1.935-.553 2.853z"/><path d="M17.628 24.819c-1.36 0-2.42 1.121-2.42 2.448a2.434 2.434 0 0 0 2.42 2.448c1.36 0 2.419-1.122 2.419-2.448 0-1.379-1.057-2.448-2.42-2.448zm0 3.926a1.47 1.47 0 0 1-1.46-1.478 1.47 1.47 0 0 1 1.46-1.478c.807 0 1.46.663 1.46 1.478a1.469 1.469 0 0 1-1.46 1.478zM7.45 9.113a1.925 1.925 0 0 1-1.915-1.938A1.925 1.925 0 0 1 3.62 9.113c1.059 0 1.915.867 1.915 1.938 0-1.071.858-1.938 1.915-1.938zM25.893 1.261a.96.96 0 0 1-.957-.968.96.96 0 0 1-.956.968.96.96 0 0 1 .956.968c-.051-.51.402-.968.957-.968zM42.368 33.64a1.925 1.925 0 0 1-1.915-1.937 1.925 1.925 0 0 1-1.915 1.938c1.06 0 1.915.866 1.915 1.938-.049-1.072.807-1.938 1.915-1.938zM13.296 4.678a.507.507 0 0 1-.504-.51c0 .255-.2.51-.504.51.252 0 .504.203.504.51 0-.256.2-.51.504-.51zM30.728 38.024a.507.507 0 0 1-.504-.51c0 .255-.2.51-.504.51.252 0 .504.204.504.51 0-.255.252-.51.504-.51zM7.45 31.193a.507.507 0 0 1-.504-.51c0 .255-.2.51-.504.51.252 0 .504.203.504.51.052-.307.252-.51.504-.51zM40.404 14.52a.507.507 0 0 1-.503-.51c0 .254-.201.51-.504.51.252 0 .504.202.504.51.049-.308.251-.51.503-.51zM17.175 42.92a.507.507 0 0 1-.504-.51c0 .256-.2.51-.503.51.251 0 .503.204.503.51 0-.254.201-.51.504-.51zM2.614 23.799a.96.96 0 0 1-.956-.968.96.96 0 0 1-.957.968.96.96 0 0 1 .957.968c-.002-.51.453-.968.956-.968z"/></g></svg>
