<?xml version="1.0" encoding="UTF-8"?>
<svg width="64px" height="64px" viewBox="0 0 64 64" version="1.1" xmlns="http://www.w3.org/2000/svg" xmlns:xlink="http://www.w3.org/1999/xlink">
    <!-- Generator: Sketch 48.2 (47327) - http://www.bohemiancoding.com/sketch -->
    <title>icon/app/charity</title>
    <desc>Created with Sketch.</desc>
    <defs></defs>
    <g id="Styleguide" stroke="none" stroke-width="1" fill="none" fill-rule="evenodd">
        <g id="icon/app/charity" fill="#311B58" fill-rule="nonzero">
            <g id="AE_charity" transform="translate(-1.000000, 16.000000)">
                <path d="M32.9707,33.48926 C31.8793464,33.4924008 30.8321776,33.0584075 30.063,32.28418 L17.85352,20.0752 C13.3721584,15.6820617 13.1986155,8.52108086 17.46191,3.91602 C21.6138065,-0.393480798 28.396547,-0.744129045 32.9707,3.11426 C37.5446692,-0.744136644 44.3273012,-0.393482928 48.479,3.91602 C52.7422972,8.52107819 52.5687587,15.682059 48.0874,20.0752 L35.87793,32.2842 C35.1088821,33.0583315 34.0618943,33.4923127 32.9707,33.48926 Z M25.64648,2.4375 L25.55908,2.4375 C23.0433701,2.45331585 20.6414078,3.48773795 18.90137,5.30469 C15.389862,9.12271479 15.5521379,15.0412554 19.26758,18.66113 L31.47758,30.87013 C32.3127599,31.668962 33.6287301,31.668962 34.46391,30.87013 L46.67338,18.66113 C50.3888169,15.0412531 50.5510927,9.12271678 47.03959,5.30469 C45.2997882,3.48766005 42.8979235,2.45321164 40.38232,2.4375 L40.29492,2.4375 C37.8112818,2.4301191 35.4281356,3.41770441 33.67773,5.17969 L32.97073,5.88669 L32.26373,5.17969 C30.5132564,3.41776909 28.1301204,2.43019695 25.64648,2.4375 Z" id="Shape"></path>
                <path d="M37,14.4375 L34,14.4375 L34,11.4375 C34,10.8852153 33.5522847,10.4375 33,10.4375 C32.4477153,10.4375 32,10.8852153 32,11.4375 L32,14.4375 L29,14.4375 C28.4477153,14.4375 28,14.8852153 28,15.4375 C28,15.9897847 28.4477153,16.4375 29,16.4375 L32,16.4375 L32,19.4375 C32,19.9897847 32.4477153,20.4375 33,20.4375 C33.5522847,20.4375 34,19.9897847 34,19.4375 L34,16.4375 L37,16.4375 C37.5522847,16.4375 38,15.9897847 38,15.4375 C38,14.8852153 37.5522847,14.4375 37,14.4375 Z" id="Shape"></path>
                <path d="M9.28027,8.48389 C8.10973779,7.26143153 6.49373641,6.56556236 4.80127,6.55518 L4.7417,6.55518 C3.39434875,6.55090511 2.08176679,6.98261502 1,7.78583 L1,10.5166 L1.70264,9.81396 C2.51011996,8.98506015 3.62580967,8.52909392 4.78271,8.55518 C5.93833132,8.56247483 7.04166784,9.0377728 7.84082,9.87256 C9.45403794,11.6330688 9.37375417,14.3575583 7.65967,16.02002 L1.41406,22.26611 C1.30386936,22.3754161 1.15520627,22.437149 1,22.43805 L1,24.4375 C1.68570007,24.4375242 2.34331372,24.1651001 2.82812,23.68018 L9.07373,17.43408 C11.5539935,14.9984651 11.6455417,11.0313234 9.28027,8.48389 Z" id="Shape"></path>
                <path d="M65,22.28003 C64.99359,22.27417 64.98517,22.27234 64.979,22.26611 L58.7334,16.02002 C57.0193106,14.3575606 56.9390267,11.6330668 58.55225,9.87256 C59.3512636,9.03787106 60.4544061,8.56257896 61.60986,8.55518 L61.65086,8.55518 C62.7916723,8.55177057 63.8863997,9.00506697 64.69086,9.81396 L65,10.12305 L65,7.54132 C63.9776975,6.90216389 62.7974503,6.56066721 61.5918,6.55518 C59.8993882,6.56582313 58.2834841,7.26165039 57.1128,8.48389 C54.7475363,11.0313281 54.8390888,14.9984655 57.31935,17.43408 L63.56544,23.68115 C63.9548403,24.0674501 64.4574511,24.3192706 65,24.3999 L65,22.28003 Z" id="Shape"></path>
            </g>
        </g>
    </g>
</svg>