<?xml version="1.0" encoding="UTF-8"?>
<svg width="64px" height="64px" viewBox="0 0 64 64" version="1.1" xmlns="http://www.w3.org/2000/svg" xmlns:xlink="http://www.w3.org/1999/xlink">
    <!-- Generator: Sketch 48.2 (47327) - http://www.bohemiancoding.com/sketch -->
    <title>icon/feature/aepps</title>
    <desc>Created with Sketch.</desc>
    <defs></defs>
    <g id="Styleguide" stroke="none" stroke-width="1" fill="none" fill-rule="evenodd">
        <g id="icon/feature/aepps" fill="#F03C6E">
            <g id="Group" transform="translate(13.000000, 13.000000)">
                <path d="M5,22 C3.34328475,22 2,23.3432847 2,25 L2,33 C2,34.6567153 3.34328475,36 5,36 L13,36 C14.6567153,36 16,34.6567153 16,33 L16,25 C16,23.3432847 14.6567153,22 13,22 L5,22 Z M5,20 L13,20 C15.7612847,20 18,22.2387153 18,25 L18,33 C18,35.7612847 15.7612847,38 13,38 L5,38 C2.23871525,38 0,35.7612847 0,33 L0,25 C0,22.2387153 2.23871525,20 5,20 Z" id="Stroke-1" fill-rule="nonzero"></path>
                <path d="M25,22 C23.3432847,22 22,23.3432847 22,25 L22,33 C22,34.6567153 23.3432847,36 25,36 L33,36 C34.6567153,36 36,34.6567153 36,33 L36,25 C36,23.3432847 34.6567153,22 33,22 L25,22 Z M25,20 L33,20 C35.7612847,20 38,22.2387153 38,25 L38,33 C38,35.7612847 35.7612847,38 33,38 L25,38 C22.2387153,38 20,35.7612847 20,33 L20,25 C20,22.2387153 22.2387153,20 25,20 Z" id="Stroke-3" fill-rule="nonzero"></path>
                <path d="M5,2 C3.34328475,2 2,3.34328475 2,5 L2,13 C2,14.6567153 3.34328475,16 5,16 L13,16 C14.6567153,16 16,14.6567153 16,13 L16,5 C16,3.34328475 14.6567153,2 13,2 L5,2 Z M5,0 L13,0 C15.7612847,0 18,2.23871525 18,5 L18,13 C18,15.7612847 15.7612847,18 13,18 L5,18 C2.23871525,18 0,15.7612847 0,13 L0,5 C0,2.23871525 2.23871525,0 5,0 Z" id="Stroke-5" fill-rule="nonzero"></path>
                <path d="M37,0 C39.209,0 41,1.791 41,4 C41,6.209 39.209,8 37,8 C34.791,8 33,6.209 33,4 C33,1.791 34.791,0 37,0" id="Fill-7"></path>
                <path d="M37,10 C36.665,9.998 36.33,9.968 36,9.91 L36,13 C35.998,14.656 34.656,15.998 33,16 L25,16 C23.344,15.998 22.002,14.656 22,13 L22,5 C22.002,3.344 23.344,2.002 25,2 L31.349,2 C31.61,1.262 32.014,0.583 32.537,0 L25,0 C22.24,0.003 20.003,2.24 20,5 L20,13 C20.003,15.76 22.24,17.997 25,18 L33,18 C35.76,17.997 37.997,15.76 38,13 L38,9.91 C37.67,9.968 37.335,9.998 37,10" id="Fill-9"></path>
            </g>
        </g>
    </g>
</svg>