<?xml version="1.0" encoding="UTF-8"?>
<svg width="64px" height="64px" viewBox="0 0 64 64" version="1.1" xmlns="http://www.w3.org/2000/svg" xmlns:xlink="http://www.w3.org/1999/xlink">
    <!-- Generator: Sketch 48.2 (47327) - http://www.bohemiancoding.com/sketch -->
    <title>icon/app/transfer</title>
    <desc>Created with Sketch.</desc>
    <defs></defs>
    <g id="Styleguide" stroke="none" stroke-width="1" fill="none" fill-rule="evenodd">
        <g id="icon/app/transfer" fill="#F03C6E" fill-rule="nonzero">
            <g id="AE_transfer" transform="translate(8.000000, 20.000000)">
                <path d="M33,17 C32.5956041,16.9999137 32.2310659,16.7562725 32.076322,16.3826546 C31.9215781,16.0090366 32.0070921,15.5789943 32.293,15.293 L35.58594,12 L32.29294,8.707 C31.9066574,8.31580827 31.908652,7.68614199 32.2974051,7.29740532 C32.6861583,6.90866864 33.3158247,6.90670079 33.707,7.293 L37.707,11.293 C37.8945825,11.4804807 37.9999739,11.7348202 37.9999739,12.00003 C37.9999739,12.2652398 37.8945825,12.5195793 37.707,12.70706 L33.707,16.70706 C33.5196999,16.8948901 33.2652572,17.0003165 33,17 Z" id="Shape"></path>
                <path d="M36,1 C30.3137171,1.00120907 25.5660797,5.33714106 25.05048,11 L22.94948,11 C22.4371792,5.33397803 17.6920059,0.991618079 12.002878,0.982644924 C6.31375005,0.973671768 1.55490241,5.30104154 1.02473082,10.9654193 C0.494559223,16.629797 4.3677242,21.7651016 9.9597038,22.8120119 C15.5516834,23.8589222 21.0202474,20.4725425 22.57509,15 L20.47491,15 C18.9419648,19.3062311 14.4207011,21.7756196 9.96908696,20.7379884 C5.51747281,19.7003572 2.5540473,15.486355 3.08313075,10.9461328 C3.61221419,6.40591063 7.46521032,2.98624308 12.0361355,3.00003096 C16.6070607,3.01381885 20.4393565,6.45666855 20.94104,11 L12,11 C11.4477153,11 11.0000001,11.4477153 11.0000001,12 C11.0000001,12.5522847 11.4477153,13 12,13 L25.05048,13 C25.5922189,18.9191459 30.7390301,23.3367621 36.6718899,22.9749003 C42.6047497,22.6130385 47.1765209,17.6026587 46.9948695,11.66155 C46.8132182,5.72044134 41.9438849,0.99872637 36,1 Z M36,21 C31.4194755,20.9935826 27.5726698,17.5516359 27.059,13 L36,13 C36.5522847,13 37,12.5522847 37,12 C37,11.4477153 36.5522847,11 36,11 L27.059,11 C27.5976669,6.19029814 31.8441577,2.66815705 36.6705368,3.02796151 C41.4969158,3.38776596 45.1742209,7.50062258 44.9937746,12.3370296 C44.8133282,17.1734367 40.839772,21.0008396 36,21 Z" id="Shape"></path>
            </g>
        </g>
    </g>
</svg>