<?xml version="1.0" encoding="UTF-8"?>
<svg width="64px" height="64px" viewBox="0 0 64 64" version="1.1" xmlns="http://www.w3.org/2000/svg" xmlns:xlink="http://www.w3.org/1999/xlink">
    <!-- Generator: Sketch 48.2 (47327) - http://www.bohemiancoding.com/sketch -->
    <title>icon/app/wall</title>
    <desc>Created with Sketch.</desc>
    <defs></defs>
    <g id="Styleguide" stroke="none" stroke-width="1" fill="none" fill-rule="evenodd">
        <g id="icon/app/wall" fill="#311B58" fill-rule="nonzero">
            <g id="AE_wall" transform="translate(14.000000, 10.000000)">
                <path d="M32,34 C35.3137085,34 38,36.6862915 38,40 C38,43.3137085 35.3137085,46 32,46 C28.6862915,46 26,43.3137085 26,40 C26.0037474,36.687845 28.687845,34.0037474 32,34 Z M32,32 C27.581722,32 24,35.581722 24,40 C24,44.418278 27.581722,48 32,48 C36.418278,48 40,44.418278 40,40 C40,35.581722 36.418278,32 32,32 Z" id="Shape"></path>
                <path d="M21.42618,42 L6.25791,42 C5.23473049,42.0000053 4.25345594,41.5935525 3.52995689,40.8700573 C2.80645785,40.146562 2.4,39.1652895 2.4,38.14211 L2.4,5.85789 C2.4,4.83471049 2.80645785,3.85343804 3.52995689,3.12994275 C4.25345594,2.40644745 5.23473049,1.9999947 6.25791,2 L29.74215,2 C31.8727882,2.00002209 33.6,3.72725181 33.6,5.85789 L33.6,29.36259 C33.5945577,29.793412 33.8848035,30.1719408 34.30228,30.27848 L34.40501,30.30316 C34.6893695,30.3785865 34.9926282,30.3181825 35.2263846,30.1395559 C35.4601409,29.9609293 35.598083,29.6841867 35.6,29.39 L35.6,5.85789 C35.6,2.62268231 32.9773577,2.20912833e-05 29.74215,0 L6.25791,0 C4.70429751,-5.30434163e-06 3.21431513,0.617161136 2.11574333,1.71572919 C1.01717153,2.81429724 0.4,4.30427751 0.4,5.85789 L0.4,38.14211 C0.4,39.6957225 1.01717153,41.1857028 2.11574333,42.2842708 C3.21431513,43.3828389 4.70429751,44.0000053 6.25791,44 L21.48691,44 C21.7887679,43.997601 22.0716338,43.8523071 22.2494112,43.6083416 C22.4271885,43.364376 22.4788458,43.0506007 22.38866,42.76252 L22.36703,42.68677 C22.2413258,42.2738844 21.8577338,41.9938828 21.42618,42 Z" id="Shape"></path>
                <path d="M35,39 L33,39 L33,37 C33,36.4477153 32.5522847,36 32,36 C31.4477153,36 31,36.4477153 31,37 L31,39 L29,39 C28.4477153,39 28,39.4477153 28,40 C28,40.5522847 28.4477153,41 29,41 L31,41 L31,43 C31,43.5522847 31.4477153,44 32,44 C32.5522847,44 33,43.5522847 33,43 L33,41 L35,41 C35.5522847,41 36,40.5522847 36,40 C36,39.4477153 35.5522847,39 35,39 Z" id="Shape"></path>
                <path d="M29,12 L7,12 C6.44771525,12 6,11.5522847 6,11 C6,10.4477153 6.44771525,10 7,10 L29,10 C29.5522847,10 30,10.4477153 30,11 C30,11.5522847 29.5522847,12 29,12 Z" id="Shape"></path>
                <path d="M29,18 L7,18 C6.44771525,18 6,17.5522847 6,17 C6,16.4477153 6.44771525,16 7,16 L29,16 C29.5522847,16 30,16.4477153 30,17 C30,17.5522847 29.5522847,18 29,18 Z" id="Shape"></path>
                <path d="M21,24 L7,24 C6.44771525,24 6,23.5522847 6,23 C6,22.4477153 6.44771525,22 7,22 L21,22 C21.5522847,22 22,22.4477153 22,23 C22,23.5522847 21.5522847,24 21,24 Z" id="Shape"></path>
            </g>
        </g>
    </g>
</svg>