<?xml version="1.0" encoding="UTF-8"?>
<svg width="64px" height="64px" viewBox="0 0 64 64" version="1.1" xmlns="http://www.w3.org/2000/svg" xmlns:xlink="http://www.w3.org/1999/xlink">
    <!-- Generator: Sketch 48.2 (47327) - http://www.bohemiancoding.com/sketch -->
    <title>icon/app/community</title>
    <desc>Created with Sketch.</desc>
    <defs></defs>
    <g id="Styleguide" stroke="none" stroke-width="1" fill="none" fill-rule="evenodd">
        <g id="icon/app/community" fill="#311B58" fill-rule="nonzero">
            <g id="AE_community" transform="translate(15.000000, 15.000000)">
                <path d="M29.288,16.02944 C29.2369281,16.0147041 29.1847023,16.0043105 29.13188,15.99837 L29.10942,15.99837 L25.05375,16.00037 L21,16.00037 L20.98883,16.00146 L20.9834,16.00037 C19.9397625,15.99465 18.9745521,15.4454281 18.43652,14.55115 C18.2509215,14.2446858 17.9155797,14.0609006 17.5573956,14.069343 C17.1992116,14.0777853 16.8729009,14.2771655 16.7019471,14.5920335 C16.5309933,14.9069016 16.541511,15.2891587 16.72952,15.59415 C17.0644969,16.1443857 17.5014863,16.6255771 18.017,17.01186 C17.6308116,17.3010696 17.2882947,17.6443982 17,18.03127 C16.0642021,16.7582441 14.5799664,16.0046457 13,16.00033 L5,16.00033 C2.23991948,16.0035701 0.00324014244,18.2402495 0,21.00033 L0,29.00033 C0.00324564049,31.7604082 2.23992176,33.9970844 5,34.00033 L13,34.00033 C14.5799682,33.9960119 16.0642042,33.2424096 17,31.96938 C17.9357958,33.2424096 19.4200318,33.9960119 21,34.00033 L29,34.00033 C31.7600782,33.9970844 33.9967544,31.7604082 34,29.00033 L34,21.00033 C33.9925795,18.3573832 31.9267743,16.1780771 29.288,16.02944 Z M13,32.00033 L5,32.00033 C3.34389511,31.9985223 2.00180771,30.6564349 2,29.00033 L2,21.00033 C2.00180771,19.3442251 3.34389511,18.0021377 5,18.00033 L13,18.00033 C14.6561049,18.0021377 15.9981923,19.3442251 16,21.00033 L16,29.00033 C15.9981923,30.6564349 14.6561049,31.9985223 13,32.00033 Z M32,29.00033 C31.9981923,30.6564349 30.6561049,31.9985223 29,32.00033 L21,32.00033 C19.3438951,31.9985223 18.0018077,30.6564349 18,29.00033 L18,21.00033 C18.0018077,19.3442251 19.3438951,18.0021377 21,18.00033 L29,18.00033 C30.6561049,18.0021377 31.9981923,19.3442251 32,21.00033 L32,29.00033 Z" id="Shape"></path>
                <path d="M17,12.10384 C17.2652637,12.103994 17.5197071,11.9986866 17.7072768,11.8111168 C17.8948466,11.6235471 18.000154,11.3691037 18,11.10384 L18,7.02669 C18,6.47440525 17.5522847,6.02669 17,6.02669 C16.4477153,6.02669 16,6.47440525 16,7.02669 L16,11.10384 C15.999846,11.3691037 16.1051534,11.6235471 16.2927232,11.8111168 C16.4802929,11.9986866 16.7347363,12.103994 17,12.10384 Z" id="Shape"></path>
                <path d="M17.02344,3.90951 C17.5040361,4.18161194 18.1142103,4.01287503 18.38672,3.53251 C18.9007017,2.62710627 19.8437283,2.04919487 20.88379,2.00224 C21.1488055,1.99230461 21.3989982,1.87741345 21.5792443,1.68287993 C21.7594905,1.48834641 21.8550001,1.23013279 21.84473,0.96513 C21.8169574,0.41650631 21.3567658,-0.00988675446 20.80762,0.00419 C19.0757452,0.0796298826 17.5041438,1.03970588 16.64648,2.54619 C16.5156304,2.77695436 16.4818356,3.0502548 16.5525333,3.30594141 C16.623231,3.56162801 16.7926272,3.77874582 17.02344,3.90951 Z" id="Shape"></path>
                <path d="M24.92285,2.00033 L28.9375,1.99833 C28.95801,1.99933 29.02637,2.00126 29.04688,2.00126 C29.3096712,2.00030778 29.5610768,1.89388478 29.7446829,1.70587167 C29.928289,1.51785855 30.02872,1.26399989 30.02344,1.00126 C30.0127467,0.444169539 29.5571905,-0.00136690891 29,0.00033 L24.92285,0.00033 C24.3705653,0.000330023277 23.92285,0.448045267 23.92285,1.00033 C23.92285,1.55261473 24.3705653,2.00032998 24.92285,2.00033 Z" id="Shape"></path>
                <path d="M33.28613,2.432 C33.0013582,1.95899849 32.3870615,1.80640818 31.91406,2.09118 C31.4410585,2.37595182 31.2884682,2.99024849 31.57324,3.46325 C31.8523269,3.92739629 31.9998506,4.45873858 32,5.00033 L32,6.91927 C32,7.47155475 32.4477153,7.91927 33,7.91927 C33.5522847,7.91927 34,7.47155475 34,6.91927 L34,5.00033 C33.9996178,4.09528784 33.752836,3.20742696 33.28613,2.432 Z" id="Shape"></path>
                <path d="M33,9.99642 C32.7347363,9.99626601 32.4802929,10.1015734 32.2927232,10.2891432 C32.1051534,10.4767129 31.999846,10.7311563 32,10.99642 L32,13.00033 C31.9998556,13.5205267 31.8634964,14.0316178 31.60449,14.48275 C31.3294274,14.9616858 31.4946992,15.5729223 31.973635,15.847985 C32.4525708,16.1230476 33.0638073,15.9577758 33.33887,15.47884 C33.7717549,14.724518 33.9996833,13.8700374 34,13.00033 L34,10.99642 C34.000154,10.7311563 33.8948466,10.4767129 33.7072768,10.2891432 C33.5197071,10.1015734 33.2652637,9.99626601 33,9.99642 Z" id="Shape"></path>
                <path d="M21,9.00033 C20.9998487,9.26559285 21.1051569,9.5200347 21.2927261,9.70760389 C21.4802953,9.89517309 21.7347371,10.0004813 22,10.00033 L23.9999999,10.00033 L23.9999999,12.00033 C23.9999999,12.5526147 24.4477152,13.00033 24.9999999,13.00033 C25.5522847,13.00033 25.9999999,12.5526147 25.9999999,12.00033 L25.9999999,10.00033 L27.9999999,10.00033 C28.5522846,10.00033 28.9999998,9.55261475 28.9999998,9.00033 C28.9999998,8.44804525 28.5522846,8.00033 27.9999999,8.00033 L25.9999999,8.00033 L25.9999999,6.00033 C25.9999999,5.44804525 25.5522847,5.00033 24.9999999,5.00033 C24.4477152,5.00033 23.9999999,5.44804525 23.9999999,6.00033 L23.9999999,8.00033 L22,8.00033 C21.7347363,8.00017601 21.4802929,8.1054834 21.2927232,8.29305317 C21.1051534,8.48062294 20.999846,8.73506633 21,9.00033 Z" id="Shape"></path>
            </g>
        </g>
    </g>
</svg>