<?xml version="1.0" encoding="UTF-8"?>
<svg width="64px" height="64px" viewBox="0 0 64 64" version="1.1" xmlns="http://www.w3.org/2000/svg" xmlns:xlink="http://www.w3.org/1999/xlink">
    <!-- Generator: Sketch 48.2 (47327) - http://www.bohemiancoding.com/sketch -->
    <title>icon/app/contacts</title>
    <desc>Created with Sketch.</desc>
    <defs></defs>
    <g id="Styleguide" stroke="none" stroke-width="1" fill="none" fill-rule="evenodd">
        <g id="icon/app/contacts" fill="#F03C6E" fill-rule="nonzero">
            <g id="AE_contacts" transform="translate(0.000000, 12.000000)">
                <path d="M44,2 C45.1040532,2.00124547 45.9987545,2.8959468 46,4 L46,36 C45.9987545,37.1040532 45.1040532,37.9987545 44,38 L20,38 C18.8959468,37.9987545 18.0012455,37.1040532 18,36 L18,4 C18.0012455,2.8959468 18.8959468,2.00124547 20,2 L44,2 Z M44,0 L20,0 C17.790861,0 16,1.790861 16,4 L16,36 C16,38.209139 17.790861,40 20,40 L44,40 C46.209139,40 48,38.209139 48,36 L48,4 C48,1.790861 46.209139,0 44,0 Z" id="Shape"></path>
                <path d="M32,9 C34.7614237,9 37,11.2385763 37,14 C37,16.7614237 34.7614237,19 32,19 C29.2385763,19 27,16.7614237 27,14 C27.0031192,11.2398693 29.2398693,9.00311917 32,9 Z M32,7 C28.1340068,7 25,10.1340068 25,14 C25,17.8659932 28.1340068,21 32,21 C35.8659932,21 39,17.8659932 39,14 C39,10.1340068 35.8659932,7 32,7 Z" id="Shape"></path>
                <path d="M38,28 L26,28 C25.4477153,28 25,27.5522847 25,27 C25,26.4477153 25.4477153,26 26,26 L38,26 C38.5522847,26 39,26.4477153 39,27 C39,27.5522847 38.5522847,28 38,28 Z" id="Shape"></path>
                <path d="M41,33 L23,33 C22.4477153,33 22,32.5522847 22,32 C22,31.4477153 22.4477153,31 23,31 L41,31 C41.5522847,31 42,31.4477153 42,32 C42,32.5522847 41.5522847,33 41,33 Z" id="Shape"></path>
                <path d="M7.09131,5 L0,5 L0,7 L7.09131,7 C8.69697896,7.00182409 9.99817591,8.30302104 10,9.90869 L10,30.09131 C9.99817591,31.696979 8.69697896,32.9981759 7.09131,33 L0,33 L0,35 L7.09131,35 C8.39317634,35.0000027 9.64172239,34.4828394 10.5622809,33.5622809 C11.4828394,32.6417224 12.0000027,31.3931763 12,30.09131 L12,9.90869 C12.0000027,8.60682366 11.4828394,7.35827761 10.5622809,6.43771909 C9.64172239,5.51716056 8.39317634,4.99999735 7.09131,5 Z" id="Shape"></path>
                <path d="M64,33 L56.90869,33 C55.303021,32.9981759 54.0018241,31.696979 54,30.09131 L54,9.90869 C54.0018241,8.30302104 55.303021,7.00182409 56.90869,7 L64,7 L64,5 L56.90869,5 C55.6068237,4.99999735 54.3582776,5.51716056 53.4377191,6.43771909 C52.5171606,7.35827761 51.9999973,8.60682366 52,9.90869 L52,30.09131 C51.9999973,31.3931763 52.5171606,32.6417224 53.4377191,33.5622809 C54.3582776,34.4828394 55.6068237,35.0000027 56.90869,35 L64,35 L64,33 Z" id="Shape"></path>
            </g>
        </g>
    </g>
</svg>
