<?xml version="1.0" encoding="UTF-8"?>
<svg width="64px" height="64px" viewBox="0 0 64 64" version="1.1" xmlns="http://www.w3.org/2000/svg" xmlns:xlink="http://www.w3.org/1999/xlink">
    <!-- Generator: Sketch 48.2 (47327) - http://www.bohemiancoding.com/sketch -->
    <title>icon/feature/currency</title>
    <desc>Created with Sketch.</desc>
    <defs></defs>
    <g id="Styleguide" stroke="none" stroke-width="1" fill="none" fill-rule="evenodd">
        <g id="icon/feature/currency" fill="#F03C6E">
            <g id="Page-1" transform="translate(10.000000, 10.000000)">
                <path d="M15,14 C6.716,14 0,20.716 0,29 C0,37.284 6.716,44 15,44 C23.284,44 30,37.284 30,29 C30,20.716 23.284,14 15,14 M15,16 C22.18,16 28,21.82 28,29 C28,36.18 22.18,42 15,42 C7.82,42 2,36.18 2,29 C2.008,21.824 7.824,16.008 15,16" id="Fill-1"></path>
                <path d="M15,14 C6.716,14 0,20.716 0,29 C0,37.284 6.716,44 15,44 C23.284,44 30,37.284 30,29 C30,20.716 23.284,14 15,14 M15,16 C22.18,16 28,21.82 28,29 C28,36.18 22.18,42 15,42 C7.82,42 2,36.18 2,29 C2.008,21.824 7.824,16.008 15,16" id="Fill-3"></path>
                <path d="M14.4497,30.25 L14.4497,25.391 L11.3247,30.25 L14.4497,30.25 Z M14.4497,34.442 L14.4497,31.775 L10.3457,31.775 L8.6427,34.442 L6.4357,34.442 L13.3977,23.938 L20.9387,23.938 L20.9387,25.598 L16.2277,25.598 L16.2277,28.383 L20.4937,28.383 L20.4937,29.998 L16.2277,29.998 L16.2277,32.783 L20.9387,32.783 L20.9387,34.442 L14.4497,34.442 Z" id="Fill-5"></path>
                <path d="M29,0 C21.859,0.001 15.708,5.036 14.296,12.036 C14.531,12.026 14.762,12 15,12 C15.455,12 15.9,12.033 16.346,12.068 C17.962,5.076 24.94,0.718 31.932,2.333 C38.924,3.95 43.282,10.928 41.666,17.92 C40.548,22.758 36.771,26.536 31.932,27.654 C31.967,28.1 32,28.546 32,29 C32,29.237 31.974,29.469 31.965,29.704 C38.965,28.292 43.999,22.141 44,15 C44,6.716 37.284,0 29,0" id="Fill-7"></path>
                <path d="M28.8916,15.8076 L25.7666,15.8076 L28.8916,10.9486 L28.8916,15.8076 Z M35.3806,11.1556 L35.3806,9.4966 L27.8396,9.4966 L23.8786,15.4726 C24.7216,16.0156 25.5096,16.6386 26.2336,17.3336 L28.8916,17.3336 L28.8916,19.9996 L35.3806,19.9996 L35.3806,18.3406 L30.6696,18.3406 L30.6696,15.5556 L34.9366,15.5556 L34.9366,13.9406 L30.6696,13.9406 L30.6696,11.1556 L35.3806,11.1556 Z" id="Fill-9"></path>
            </g>
        </g>
    </g>
</svg>