<?xml version="1.0" encoding="UTF-8"?>
<svg width="64px" height="64px" viewBox="0 0 64 64" version="1.1" xmlns="http://www.w3.org/2000/svg" xmlns:xlink="http://www.w3.org/1999/xlink">
    <!-- Generator: Sketch 48.2 (47327) - http://www.bohemiancoding.com/sketch -->
    <title>icon/app/explorer</title>
    <desc>Created with Sketch.</desc>
    <defs></defs>
    <g id="Styleguide" stroke="none" stroke-width="1" fill="none" fill-rule="evenodd">
        <g id="icon/app/explorer" fill="#F03C6E" fill-rule="nonzero">
            <g id="AE_explorer" transform="translate(9.000000, 9.000000)">
                <path d="M39,33 C37.7545819,32.99946 36.5402179,33.3886828 35.52716,34.1131 L32.19232,30.77826 L37.14215,25.82843 C38.7042179,24.2663184 38.7042179,21.7336816 37.14215,20.17157 L32.19232,15.22174 L35.52716,11.8869 C38.0743734,13.6988951 41.5851828,13.2566217 43.6034129,10.8694958 C45.6216429,8.48237003 45.4738749,4.94689932 43.2634878,2.73651222 C41.0531007,0.526125125 37.51763,0.378357067 35.1305042,2.39658713 C32.7433783,4.4148172 32.3011049,7.92562661 34.1131,10.47284 L30.77826,13.80768 L25.82843,8.85785 C25.0782843,8.10770273 24.0608674,7.68627425 23,7.68627425 C21.9391326,7.68627425 20.9217157,8.10770273 20.17157,8.85785 L15.22174,13.80768 L11.8869,10.47284 C13.6988951,7.92562661 13.2566217,4.4148172 10.8694958,2.39658713 C8.48237003,0.378357067 4.94689932,0.526125125 2.73651222,2.73651222 C0.526125125,4.94689932 0.378357067,8.48237003 2.39658713,10.8694958 C4.4148172,13.2566217 7.92562661,13.6988951 10.47284,11.8869 L13.80768,15.22174 L8.85785,20.17157 C7.29578214,21.7336816 7.29578214,24.2663184 8.85785,25.82843 L13.80768,30.77826 L10.47284,34.1131 C7.92562661,32.3011049 4.4148172,32.7433783 2.39658713,35.1305042 C0.378357067,37.51763 0.526125125,41.0531007 2.73651222,43.2634878 C4.94689932,45.4738749 8.48237003,45.6216429 10.8694958,43.6034129 C13.2566217,41.5851828 13.6988951,38.0743734 11.8869,35.52716 L15.22174,32.19232 L20.17157,37.14215 C20.9217157,37.8922973 21.9391326,38.3137258 23,38.3137258 C24.0608674,38.3137258 25.0782843,37.8922973 25.82843,37.14215 L30.77826,32.19232 L34.1131,35.52716 C32.5126707,37.7835593 32.6636217,40.8419859 34.4784642,42.9298218 C36.2933067,45.0176577 39.3009337,45.5929308 41.7581699,44.3222215 C44.2154062,43.0515123 45.4843886,40.2646784 44.8296341,37.5769268 C44.1748796,34.8891753 41.766353,32.9982075 39,33 Z M39,3 C41.209139,3 43,4.790861 43,7 C43,9.209139 41.209139,11 39,11 C36.790861,11 35,9.209139 35,7 C35.0024799,4.79188904 36.791889,3.00247994 39,3 Z M7,11 C4.790861,11 3,9.209139 3,7 C3,4.790861 4.790861,3 7,3 C9.209139,3 11,4.790861 11,7 C10.9974981,9.20810183 9.20810183,10.9974981 7,11 Z M7,43 C4.790861,43 3,41.209139 3,39 C3,36.790861 4.790861,35 7,35 C9.209139,35 11,36.790861 11,39 C10.9974981,41.2081018 9.20810183,42.9974981 7,43 Z M24.41425,35.72791 C24.0391836,36.1029959 23.5304727,36.3137186 23.000035,36.3137186 C22.4695973,36.3137186 21.9608864,36.1029959 21.58582,35.72791 L10.27209,24.41418 C9.89700411,24.0391136 9.68628141,23.5304027 9.68628141,22.999965 C9.68628141,22.4695273 9.89700411,21.9608164 10.27209,21.58575 L21.58582,10.272 C22.3668895,9.4909992 23.6331805,9.4909992 24.41425,10.272 L35.728,21.58575 C36.5090008,22.3668195 36.5090008,23.6331105 35.728,24.41418 L24.41425,35.72791 Z M39,43 C36.790861,43 35,41.209139 35,39 C35,36.790861 36.790861,35 39,35 C41.209139,35 43,36.790861 43,39 C42.9974981,41.2081018 41.2081018,42.9974981 39,43 Z" id="Shape"></path>
            </g>
        </g>
    </g>
</svg>