<?xml version="1.0" encoding="UTF-8"?>
<svg width="64px" height="64px" viewBox="0 0 64 64" version="1.1" xmlns="http://www.w3.org/2000/svg" xmlns:xlink="http://www.w3.org/1999/xlink">
    <!-- Generator: Sketch 48.2 (47327) - http://www.bohemiancoding.com/sketch -->
    <title>icon/app/messenger</title>
    <desc>Created with Sketch.</desc>
    <defs></defs>
    <g id="Styleguide" stroke="none" stroke-width="1" fill="none" fill-rule="evenodd">
        <g id="icon/app/messenger" fill="#F03C6E" fill-rule="nonzero">
            <g id="AE_messenger" transform="translate(8.000000, 10.000000)">
                <path d="M31,2 C32.1040532,2.00124547 32.9987545,2.8959468 33,4 L33,8 C32.9987545,9.1040532 32.1040532,9.99875453 31,10 L4,10 C2.8959468,9.99875453 2.00124547,9.1040532 2,8 L2,4 C2.00124547,2.8959468 2.8959468,2.00124547 4,2 L31,2 Z M31,0 L4,0 C1.790861,0 0,1.790861 0,4 L0,8 C0,10.209139 1.790861,12 4,12 L31,12 C33.209139,12 35,10.209139 35,8 L35,4 C35,1.790861 33.209139,1.77635684e-15 31,0 Z" id="Shape"></path>
                <path d="M21,34 C22.1040532,34.0012455 22.9987545,34.8959468 23,36 L23,40 C22.9987545,41.1040532 22.1040532,41.9987545 21,42 L4,42 C2.8959468,41.9987545 2.00124547,41.1040532 2,40 L2,36 C2.00124547,34.8959468 2.8959468,34.0012455 4,34 L21,34 Z M21,32 L4,32 C1.790861,32 0,33.790861 0,36 L0,40 C0,42.209139 1.790861,44 4,44 L21,44 C23.209139,44 25,42.209139 25,40 L25,36 C25,33.790861 23.209139,32 21,32 Z" id="Shape"></path>
                <path d="M44,18 C45.1040532,18.0012455 45.9987545,18.8959468 46,20 L46,24 C45.9987545,25.1040532 45.1040532,25.9987545 44,26 L20,26 C18.8959468,25.9987545 18.0012455,25.1040532 18,24 L18,20 C18.0012455,18.8959468 18.8959468,18.0012455 20,18 L44,18 Z M44,16 L20,16 C17.790861,16 16,17.790861 16,20 L16,24 C16,26.209139 17.790861,28 20,28 L44,28 C46.209139,28 48,26.209139 48,24 L48,20 C48,17.790861 46.209139,16 44,16 Z" id="Shape"></path>
                <path d="M41,23 L23,23 C22.4477153,23 22,22.5522847 22,22 C22,21.4477153 22.4477153,21 23,21 L41,21 C41.5522847,21 42,21.4477153 42,22 C42,22.5522847 41.5522847,23 41,23 Z" id="Shape"></path>
                <path d="M29,7 L6,7 C5.44771525,7 5,6.55228475 5,6 C5,5.44771525 5.44771525,5 6,5 L29,5 C29.5522847,5 30,5.44771525 30,6 C30,6.55228475 29.5522847,7 29,7 Z" id="Shape"></path>
                <path d="M19,39 L6,39 C5.44771525,39 5,38.5522847 5,38 C5,37.4477153 5.44771525,37 6,37 L19,37 C19.5522847,37 20,37.4477153 20,38 C20,38.5522847 19.5522847,39 19,39 Z" id="Shape"></path>
            </g>
        </g>
    </g>
</svg>