<?xml version="1.0" encoding="UTF-8"?>
<svg width="64px" height="64px" viewBox="0 0 64 64" version="1.1" xmlns="http://www.w3.org/2000/svg" xmlns:xlink="http://www.w3.org/1999/xlink">
    <!-- Generator: Sketch 48.2 (47327) - http://www.bohemiancoding.com/sketch -->
    <title>icon/app/placeholder</title>
    <desc>Created with Sketch.</desc>
    <defs></defs>
    <g id="Styleguide" stroke="none" stroke-width="1" fill="none" fill-rule="evenodd">
        <g id="icon/app/placeholder" fill="#311B58" fill-rule="nonzero">
            <path d="M42.99479,43.99805 C40.0542121,44.0057288 37.212206,42.9384485 35.00358,40.99705 C34.7356308,40.7605009 34.614233,40.3989713 34.6851159,40.0486459 C34.7559989,39.6983205 35.0083938,39.4124221 35.3472259,39.2986459 C35.6860581,39.1848696 36.0598508,39.2605009 36.3278,39.49705 C39.8332177,42.6423614 45.0549001,42.9250693 48.8794133,40.1766087 C52.7039266,37.4281482 54.1010218,32.3889007 52.2376794,28.063523 C50.374337,23.7381453 45.752505,21.2918094 41.1279557,22.1831458 C36.5034063,23.0744822 33.1219027,27.0633822 32.99967,31.77146 L32.99967,31.99803 C32.9554899,37.6026565 29.0078651,42.4173576 23.5205951,43.5591366 C18.0333252,44.7009156 12.4928365,41.8604804 10.2167201,36.738656 C7.94060372,31.6168317 9.54542843,25.6010503 14.0702407,22.2935037 C18.5950529,18.9859571 24.8141431,19.2826144 29.00358,23.00584 C29.4161809,23.3731315 29.4529115,24.0053591 29.08562,24.41796 C28.7183285,24.8305609 28.0861009,24.8672915 27.6735,24.5 C24.1690225,21.3504344 18.9450944,21.0636813 15.116938,23.8107423 C11.2887815,26.5578033 9.88782219,31.5985339 11.749504,35.9269594 C13.6111859,40.2553848 18.2339134,42.7052914 22.8609826,41.8157089 C27.4880517,40.9261264 30.8727849,36.9367363 30.99674,32.22656 L30.99674,32 C30.9967198,27.1472372 33.919938,22.7722975 38.4033004,20.9152115 C42.8866628,19.0581256 48.0472462,20.0846155 51.4786748,23.5160298 C54.9101035,26.9474441 55.9366149,32.1080233 54.0795476,36.5913934 C52.2224804,41.0747636 47.8475528,43.998 42.99479,43.998 L42.99479,43.99805 Z" id="Shape"></path>
        </g>
    </g>
</svg>