<?xml version="1.0" encoding="UTF-8"?>
<svg width="64px" height="64px" viewBox="0 0 64 64" version="1.1" xmlns="http://www.w3.org/2000/svg" xmlns:xlink="http://www.w3.org/1999/xlink">
    <!-- Generator: Sketch 48.2 (47327) - http://www.bohemiancoding.com/sketch -->
    <title>icon/app/voting</title>
    <desc>Created with Sketch.</desc>
    <defs></defs>
    <g id="Styleguide" stroke="none" stroke-width="1" fill="none" fill-rule="evenodd">
        <g id="icon/app/voting" fill="#311B58" fill-rule="nonzero">
            <g id="AE_voting" transform="translate(11.000000, 11.000000)">
                <path d="M21.3511234,14.9363292 C20.8340031,15.1302493 20.2575909,14.8682438 20.0636708,14.3511234 C19.8697507,13.8340031 20.1317562,13.2575909 20.6488766,13.0636708 L28.6488766,10.0636708 C29.1659969,9.8697507 29.7424091,10.1317562 29.9363292,10.6488766 C30.1302493,11.1659969 29.8682438,11.7424091 29.3511234,11.9363292 L21.3511234,14.9363292 Z" id="Shape"></path>
                <path d="M18.0788536,9.65587625 C17.8638954,9.14714113 18.1020486,8.56047178 18.6107838,8.34551359 C19.1195189,8.13055539 19.7061882,8.36870864 19.9211464,8.87744375 L21.9211464,13.6107838 C22.1361046,14.1195189 21.8979514,14.7061882 21.3892162,14.9211464 C20.8804811,15.1361046 20.2938118,14.8979514 20.0788536,14.3892162 L18.0788536,9.65587625 Z" id="Shape"></path>
                <path d="M38,19 L31.59991,19 L34.37549,11.78418 C34.9425359,10.3085797 34.8889149,8.66640513 34.2268157,7.23093936 C33.5647165,5.79547358 32.3503882,4.68866771 30.85986,4.16211 L22.69434,1.28027 C19.865301,0.277846011 16.7367961,1.58073964 15.45557,4.29492 L8.49011,19 L4,19 C1.790861,19 0,20.790861 0,23 L0,35 C0,37.209139 1.790861,39 4,39 L38,39 C40.209139,39 42,37.209139 42,35 L42,23 C42,20.790861 40.209139,19 38,19 Z M17.26318,5.15039 C18.1044411,3.36146895 20.166205,2.50329845 22.02832,3.16699 L30.19385,6.04883 C31.1751152,6.39510532 31.9746527,7.12347082 32.4106482,8.06829667 C32.8466438,9.01312252 32.8820408,10.0941052 32.50879,11.06543 L29.54639,18.7666 L10.81348,18.7666 L17.26318,5.15039 Z M40,35 C39.9987325,36.1040441 39.1040441,36.9987325 38,37 L4,37 C2.89595593,36.9987325 2.00126747,36.1040441 2,35 L2,23 C2.00124547,21.8959468 2.8959468,21.0012455 4,21 L38,21 C39.1040532,21.0012455 39.9987545,21.8959468 40,23 L40,35 Z" id="Shape"></path>
                <path d="M29.93652,10.64844 C29.7413446,10.1324247 29.1659768,9.87101365 28.64893,10.06344 L21.54785,12.72634 L19.92139,8.877 C19.7061922,8.36813038 19.1192196,8.1300623 18.61035,8.34526004 C18.1014804,8.56045779 17.8634123,9.14743036 18.07861,9.6563 L20.07861,14.3897 C20.1018266,14.4351925 20.1286244,14.4787665 20.15875,14.52001 C20.1794167,14.5591945 20.2026402,14.5969762 20.22827,14.63311 C20.2657532,14.674369 20.3066956,14.7123473 20.35065,14.74663 C20.4193493,14.822757 20.5076474,14.8785414 20.6059,14.90789 C20.7216308,14.973423 20.8536218,15.0046666 20.98645,14.99797 L21,15 L21.00024,14.99994 L21.00049,15 L21.00439,14.99921 C21.1227379,14.9988682 21.2400971,14.9776461 21.35107,14.93652 L29.35107,11.93652 C29.868266,11.7423175 30.1303043,11.1657928 29.93652,10.64844 Z" id="Shape"></path>
            </g>
        </g>
    </g>
</svg>