<svg width="34" height="26" viewBox="0 0 34 26" xmlns="http://www.w3.org/2000/svg"><g fill-rule="nonzero" fill="#F03C6E"><path d="M13.207 11.697l3.888-1.63c.633-.264 1.633-.264 2.262 0l2.84 1.19c.52.22 1.411.22 1.942 0l2.834-1.19c.632-.265 1.628-.265 2.256 0l3.884 1.63a.433.433 0 1 0 .335-.802l-3.883-1.629c-.842-.356-2.08-.356-2.928 0l-2.833 1.188c-.315.132-.964.132-1.271.001l-2.841-1.19c-.842-.354-2.084-.354-2.932 0l-3.888 1.63a.435.435 0 0 0 .335.802zM13.207 14.594l3.888-1.629c.633-.265 1.633-.265 2.262 0l2.84 1.189c.52.221 1.411.221 1.942 0l2.834-1.189c.632-.266 1.628-.266 2.256 0l3.884 1.629a.433.433 0 1 0 .335-.802l-3.883-1.629c-.842-.356-2.08-.356-2.928 0l-2.833 1.189c-.315.131-.964.131-1.271 0l-2.841-1.189c-.842-.355-2.084-.355-2.932 0l-3.888 1.629a.435.435 0 0 0 .335.802z"/><path d="M13.207 17.201l3.888-1.628c.633-.265 1.633-.265 2.262 0l2.84 1.188c.52.222 1.411.222 1.942 0l2.834-1.188c.632-.266 1.628-.266 2.256 0l3.884 1.628a.433.433 0 1 0 .335-.802l-3.883-1.628c-.842-.356-2.08-.356-2.928 0l-2.833 1.188c-.315.132-.964.132-1.271.001l-2.841-1.19c-.842-.354-2.084-.354-2.932 0l-3.888 1.63a.435.435 0 0 0 .335.801z"/><path d="M12.742 25.513C5.955 25.513.452 20.001.452 13.2.453 6.4 5.956.887 12.743.887 19.529.887 25.03 6.399 25.03 13.2c0 6.8-5.502 12.313-12.29 12.313zm0-.869c6.308 0 11.421-5.123 11.421-11.444 0-6.32-5.113-11.444-11.421-11.444C6.434 1.756 1.32 6.879 1.32 13.2c0 6.32 5.114 11.444 11.422 11.444z"/><path d="M12.742 23.177c-5.5 0-9.957-4.467-9.957-9.977 0-5.51 4.458-9.977 9.957-9.977 5.499 0 9.957 4.467 9.957 9.977 0 5.51-4.458 9.977-9.957 9.977zm0-.87c5.02 0 9.09-4.077 9.09-9.107 0-5.03-4.07-9.107-9.09-9.107S3.652 8.17 3.652 13.2c0 5.03 4.07 9.107 9.09 9.107z"/></g></svg>
