<?xml version="1.0" encoding="utf-8"?>
<!-- Generator: Adobe Illustrator 22.0.1, SVG Export Plug-In . SVG Version: 6.00 Build 0)  -->
<svg version="1.1" id="Layer_1" xmlns="http://www.w3.org/2000/svg" xmlns:xlink="http://www.w3.org/1999/xlink" x="0px" y="0px"
	 viewBox="0 0 40 40" style="enable-background:new 0 0 40 40;" xml:space="preserve">
<style type="text/css">
	.st0{fill:#F03C6E;}
</style>
<path class="st0" d="M29.3,11c-3.5,0-5.9,2.2-8,4.9l1.2,1.8c1.9-2.6,3.9-4.6,6.8-4.6c3.3,0,6,2.3,6.5,5.4h-8.1v2h10.2
	c0-0.3,0.1-0.7,0.1-1C38,14.8,34.1,11,29.3,11"/>
<path class="st0" d="M29.3,25.8c-3.5,0-5.8-3-8.7-7.3S15,11,10.7,11C5.9,11,2,14.8,2,19.4c0,4.6,3.9,8.4,8.7,8.4
	c3.5,0,5.9-2.2,8-4.8l-1.2-1.8c-1.9,2.6-3.9,4.6-6.8,4.6c-3.6,0-6.6-2.9-6.6-6.4s3-6.4,6.6-6.4c3.5,0,5.7,2.8,8.7,7.3
	s5.7,7.5,9.9,7.5c3.7,0,6.8-2.2,8.1-5.4h-2.3C34,24.5,31.8,25.8,29.3,25.8"/>
</svg>
