<svg width="27" height="26" viewBox="0 0 27 26" xmlns="http://www.w3.org/2000/svg"><path d="M12.214 9.442c.027.027.054.08.08.105l2.823 2.807a.654.654 0 0 0 .484.185c.188 0 .35-.053.484-.185.27-.265.27-.69 0-.927L14.391 9.76h5.781a.661.661 0 1 0 0-1.323h-5.808l1.721-1.694c.269-.264.269-.688 0-.926-.269-.265-.7-.265-.94 0l-2.851 2.806c-.028.027-.054.053-.081.106 0 0 0 .026-.028.026-.027.027-.027.053-.053.08 0 .027 0 .027-.028.053 0 .027-.027.053-.027.08v.264c0 .027.027.053.027.08 0 .027 0 .027.028.052.027 0 .027.026.054.052 0 0 0 .027.028.027zm14.167.07c0 1.919-.701 3.81-1.994 5.35.27.513.62.946 1.078 1.243a.953.953 0 0 1 .404 1 .888.888 0 0 1-.782.73 6.224 6.224 0 0 1-3.72-.54 11.15 11.15 0 0 1-5.15 1.242c-5.609 0-10.138-4.025-10.138-8.998 0-4.97 4.555-8.997 10.137-8.997 5.61-.027 10.165 4.026 10.165 8.97zM16.23 1.926c-4.84 0-8.767 3.416-8.767 7.613 0 4.198 3.927 7.614 8.767 7.614a9.86 9.86 0 0 0 4.813-1.238.743.743 0 0 1 .672 0c.619.376 1.345.591 2.179.619-.404-.431-.7-.942-.941-1.56a.729.729 0 0 1 .134-.7c1.237-1.345 1.91-2.986 1.91-4.735 0-4.197-3.927-7.613-8.767-7.613zm.45 17.418c-.348-.134-.722.053-.855.4-.908 2.59-3.714 4.378-6.84 4.378a7.968 7.968 0 0 1-3.928-1.014.739.739 0 0 0-.668 0c-.481.294-1.016.427-1.47.48.267-.32.454-.694.615-1.12a.723.723 0 0 0-.134-.695c-1.015-1.067-1.55-2.402-1.55-3.818 0-2.03 1.15-3.924 3.1-5.1a.657.657 0 0 0 .24-.907.658.658 0 0 0-.908-.24c-2.351 1.388-3.74 3.738-3.74 6.247a6.94 6.94 0 0 0 1.63 4.433c-.214.373-.481.695-.829.907a.864.864 0 0 0-.373.935c.08.347.373.614.748.667.668.08 1.87.134 3.073-.453a9.23 9.23 0 0 0 4.247 1.014c3.741 0 6.975-2.108 8.097-5.26a.745.745 0 0 0-.455-.854z" fill="#F03C6E" fill-rule="evenodd"/></svg>
