<?xml version="1.0" encoding="UTF-8"?>
<svg width="64px" height="64px" viewBox="0 0 64 64" version="1.1" xmlns="http://www.w3.org/2000/svg" xmlns:xlink="http://www.w3.org/1999/xlink">
    <!-- Generator: Sketch 48.2 (47327) - http://www.bohemiancoding.com/sketch -->
    <title>icon/app/base-aepp</title>
    <desc>Created with Sketch.</desc>
    <defs></defs>
    <g id="Styleguide" stroke="none" stroke-width="1" fill="none" fill-rule="evenodd">
        <g id="icon/app/base-aepp" fill="#FFFFFF" fill-rule="nonzero">
            <path d="M55.08357,21.1501759 C54.383913,14.8996222 49.1633481,10.1336062 42.87508,10.0046659 C36.0678674,9.93192255 30.4735324,15.3580735 30.33852,22.1643359 L30.32625,22.1643359 L30.32625,22.4143359 C30.323682,25.6086113 28.611501,28.557148 25.8384993,30.1426649 C23.0654976,31.7281818 19.655948,31.7080928 16.9018219,30.0900101 C14.1476957,28.4719274 12.470378,25.5034198 12.50545,22.3093359 C12.6321073,17.4576892 16.5661907,13.5712329 21.41902,13.5036759 L21.46785,13.5036759 C22.7906408,13.5077335 24.0955985,13.8091066 25.28621,14.3855059 C26.0706017,14.7802972 27.0261003,14.5330719 27.52058,13.8073859 C27.8077964,13.3820083 27.8966674,12.8530712 27.76424,12.3571859 C27.6401144,11.8828015 27.3167448,11.485358 26.87752,11.2673459 C23.2194963,9.47377459 18.9141377,9.58984139 15.3580615,11.5778953 C11.8019854,13.5659492 9.44815485,17.1727575 9.06013004,21.2283059 C8.71427772,24.7152102 9.87160283,28.1841555 12.24178,30.7649259 C16.09812,35.012841 22.3672243,36.0558702 27.39125,33.2854359 L27.39949,33.2995959 L27.6158,33.1741059 C30.4133282,31.5609777 33.8644166,31.5865063 36.6377745,33.2408435 C39.4111324,34.8951808 41.0732656,37.919743 40.98299,41.1477759 C40.793429,45.8436889 37.0299731,49.6071448 32.33406,49.7967059 C29.9279569,49.8634763 27.596974,48.9551124 25.8704836,47.2779059 C24.1439933,45.6006994 23.1685213,43.2969935 23.1656,40.8899659 C23.1724837,40.4591685 23.0060012,40.0436678 22.7035554,39.7368123 C22.4011095,39.4299569 21.9880619,39.257478 21.55721,39.2581259 C21.0734466,39.1963198 20.5863855,39.3447499 20.21931,39.6658459 C19.8662695,39.9745145 19.6643013,40.4210178 19.6656,40.8899659 C19.6731003,47.7389655 25.2218842,53.2901291 32.07088,53.3005659 C32.23543,53.3005659 32.40095,53.2976359 32.56648,53.2912959 C39.0260033,53.0129233 44.1992475,47.8396791 44.47762,41.3801559 C44.6203096,38.0041095 43.3692539,34.7177886 41.01762,32.2912959 C40.261152,31.5098252 39.4060488,30.830291 38.47392,30.2698659 L38.48442,30.2517359 L38.26811,30.1257359 C35.5238119,28.5257639 33.8333154,25.5909443 33.82622,22.4143059 C33.8317311,17.4953798 37.817934,13.5091769 42.73686,13.5036659 L42.73979,13.5036659 C47.3633418,13.575203 51.1912238,17.1168694 51.62114,21.7209459 C51.9026959,25.2916777 50.0172737,28.6835117 46.83598,30.3293459 C46.0485163,30.7208009 45.6726889,31.6349054 45.95708,32.4670459 C46.1253123,32.9522067 46.4953562,33.3407701 46.97173,33.5324759 C47.1754757,33.6146939 47.3931309,33.6569648 47.61284,33.6569859 C47.8758449,33.6573517 48.1351993,33.5954396 48.36968,33.4763159 C52.9528668,31.1632645 55.626223,26.2552062 55.08357,21.1501759 Z" id="Shape"></path>
        </g>
    </g>
</svg>