<?xml version="1.0" encoding="UTF-8"?>
<svg width="64px" height="64px" viewBox="0 0 64 64" version="1.1" xmlns="http://www.w3.org/2000/svg" xmlns:xlink="http://www.w3.org/1999/xlink">
    <!-- Generator: Sketch 48.2 (47327) - http://www.bohemiancoding.com/sketch -->
    <title>icon/feature/identities</title>
    <desc>Created with Sketch.</desc>
    <defs></defs>
    <g id="Styleguide" stroke="none" stroke-width="1" fill="none" fill-rule="evenodd">
        <g id="icon/feature/identities" fill="#F03C6E">
            <g id="Group" transform="translate(0.000000, 12.000000)">
                <path d="M32,1.9999 C26.4772847,1.9999 22,6.47718475 22,11.9999 C22,17.5226153 26.4772847,21.9999 32,21.9999 C37.5227153,21.9999 42,17.5226153 42,11.9999 C42,6.47718475 37.5227153,1.9999 32,1.9999 Z M32,-0.0001 C38.6272847,-0.0001 44,5.37261525 44,11.9999 C44,18.6271847 38.6272847,23.9999 32,23.9999 C25.3727153,23.9999 20,18.6271847 20,11.9999 C20,5.37261525 25.3727153,-0.0001 32,-0.0001 Z" id="Stroke-1" fill-rule="nonzero"></path>
                <path d="M43.9648,24.6874 C43.0658,23.9204 42.1048,23.2314 41.0908,22.6254 C40.5328,23.1004 39.9398,23.5324 39.3148,23.9144 C43.8778,26.3324 46.9998,30.4814 46.9998,33.0004 C46.9878,33.2164 46.8838,33.4164 46.7138,33.5514 C44.8368,35.4134 36.7038,36.0464 31.9908,36.0004 C27.2918,36.0544 19.1628,35.4124 17.2858,33.5514 C17.1158,33.4164 17.0118,33.2164 16.9998,33.0004 C16.9998,30.4814 20.1218,26.3324 24.6848,23.9144 C24.0608,23.5324 23.4668,23.1004 22.9088,22.6254 C21.8958,23.2314 20.9338,23.9204 20.0358,24.6874 C16.9768,27.3104 14.9998,30.5724 14.9998,33.0004 C15.0118,33.7494 15.3298,34.4614 15.8788,34.9724 C18.7658,37.8334 29.2398,38.0004 31.6248,38.0004 L32.3608,38.0004 C34.7618,38.0004 45.2338,37.8334 48.1208,34.9724 C48.6698,34.4614 48.9868,33.7494 48.9998,33.0004 C48.9998,30.5724 47.0238,27.3104 43.9648,24.6874" id="Fill-3"></path>
                <path d="M64,29.8408 L63.991,29.8408 C59.93,29.8748 55.908,29.2118 55.556,28.4798 C55.556,27.2178 57.433,24.6538 60.252,23.2928 C59.592,22.9468 58.981,22.5118 58.438,21.9998 C55.53,23.7218 53.556,26.4788 53.556,28.4798 C53.561,29.0318 53.792,29.5578 54.195,29.9348 C55.982,31.7058 61.956,31.8418 63.717,31.8418 C63.828,31.8418 63.914,31.8408 64,31.8408 L64,29.8408 Z" id="Fill-5"></path>
                <path d="M64,20.3613 C60.966,20.3573 58.511,17.8943 58.515,14.8603 C58.52,11.8323 60.973,9.3793 64,9.3753 L64,7.3753 C59.861,7.3803 56.511,10.7393 56.517,14.8773 C56.521,19.0083 59.869,22.3563 64,22.3613 L64,20.3613 Z" id="Fill-7"></path>
                <path d="M0,29.8408 L0.009,29.8408 C4.07,29.8748 8.091,29.2118 8.444,28.4798 C8.444,27.2178 6.567,24.6538 3.748,23.2928 C4.409,22.9468 5.019,22.5118 5.562,21.9998 C8.47,23.7218 10.444,26.4788 10.444,28.4798 C10.439,29.0318 10.208,29.5578 9.805,29.9348 C8.017,31.7058 2.044,31.8418 0.283,31.8418 C0.172,31.8418 0.086,31.8408 0,31.8408 L0,29.8408 Z" id="Fill-9"></path>
                <path d="M0,20.3613 C3.032,20.3573 5.49,17.9003 5.493,14.8683 C5.49,11.8363 3.032,9.3783 0,9.3753 L0,7.3753 C4.136,7.3793 7.489,10.7323 7.493,14.8683 C7.489,19.0043 4.136,22.3563 0,22.3613 L0,20.3613 Z" id="Fill-11"></path>
            </g>
        </g>
    </g>
</svg>