<?xml version="1.0" encoding="UTF-8"?>
<svg width="64px" height="64px" viewBox="0 0 64 64" version="1.1" xmlns="http://www.w3.org/2000/svg" xmlns:xlink="http://www.w3.org/1999/xlink">
    <!-- Generator: Sketch 48.2 (47327) - http://www.bohemiancoding.com/sketch -->
    <title>icon/app/proof</title>
    <desc>Created with Sketch.</desc>
    <defs></defs>
    <g id="Styleguide" stroke="none" stroke-width="1" fill="none" fill-rule="evenodd">
        <g id="icon/app/proof" fill="#311B58" fill-rule="nonzero">
            <g id="AE_proof" transform="translate(11.000000, 11.000000)">
                <path d="M39.49707,38.08594 L29.12207,27.71094 C28.9345893,27.5233575 28.6802498,27.4179661 28.41504,27.4179661 C28.1498302,27.4179661 27.8954907,27.5233575 27.70801,27.71094 C27.6080375,27.8125903 27.5312766,27.9346948 27.48301,28.06885 C27.42639,28.0958983 27.3725647,28.1284447 27.32231,28.16602 C22.058829,32.9981246 14.05395,33.2577229 8.48844756,28.7768023 C2.92294509,24.2958817 1.46810785,16.4200372 5.06550957,10.2465318 C8.66291129,4.07302648 16.2322727,1.45572887 22.8746872,4.08855952 C29.5171016,6.72139017 33.2378899,13.813725 31.62895,20.77539 C31.5487046,21.1235828 31.6603134,21.4881367 31.9217345,21.7317277 C32.1831556,21.9753187 32.554673,22.0609396 32.8963395,21.9563377 C33.2380061,21.8517359 33.4979146,21.5728028 33.57816,21.22461 C35.4410346,13.2785486 31.234502,5.16046248 23.6684787,2.10015453 C16.1024553,-0.960153432 7.43495736,1.95063994 3.24972764,8.95735429 C-0.935502077,15.9640687 0.610583073,24.975609 6.89196994,30.1865948 C13.1733568,35.3975806 22.3154183,35.2528369 28.42869,29.84561 L38.083,39.5 C38.3355975,39.7525975 38.7037664,39.851248 39.0488209,39.7587909 C39.3938755,39.6663338 39.6633938,39.3968155 39.7558509,39.0517609 C39.848308,38.7067064 39.7496575,38.3385375 39.49706,38.08594 L39.49707,38.08594 Z" id="Shape"></path>
                <path d="M11.21875,25.21875 C11.4840158,25.2190506 11.7384598,25.1136021 11.92575,24.92575 L24.919,11.93262 C25.1723324,11.6801677 25.2715393,11.3116333 25.1791745,10.9661218 C25.0868098,10.6206102 24.8169398,10.3507402 24.4714282,10.2583755 C24.1259167,10.1660107 23.7573823,10.2652176 23.50493,10.51855 L10.51172,23.51172 C10.2258121,23.7977143 10.1402981,24.2277566 10.295042,24.6013746 C10.4497859,24.9749925 10.8143241,25.2186337 11.21872,25.21872 L11.21875,25.21875 Z" id="Shape"></path>
                <path d="M20.917,23.458 C21.1822658,23.4583006 21.4367098,23.3528521 21.624,23.165 L27.207,17.582 C27.4634141,17.3301891 27.5649671,16.9601405 27.4730001,16.6127229 C27.3810331,16.2653052 27.1096948,15.9939669 26.7622771,15.9019999 C26.4148595,15.8100329 26.0448109,15.9115859 25.793,16.168 L20.21,21.751 C19.9240921,22.0369943 19.8385781,22.4670366 19.993322,22.8406546 C20.1480659,23.2142725 20.5126041,23.4579137 20.917,23.458 Z" id="Shape"></path>
                <path d="M15.68652,14.14453 C16.0770019,13.7540481 16.0770019,13.1209519 15.68652,12.73047 C15.2960381,12.3399881 14.6629419,12.3399881 14.27246,12.73047 L9.4043,17.59863 C9.01381535,17.9891119 9.01381311,18.6222104 9.404295,19.012695 C9.79477689,19.4031796 10.4278754,19.4031819 10.81836,19.0127 L15.68652,14.14453 Z" id="Shape"></path>
            </g>
        </g>
    </g>
</svg>